# xmcd
#
# Track frame offsets: 
#        150
#        93488
#        127985
#        149633
#        175473
#        212256
#        231258
#        254918
#        275594
#        292185
#        314915
#
# Disc length: 4431 seconds
#
# Revision: 1
# Processed by: cddbd v1.5.2PL0 Copyright (c) Steve Scherf et al.
# Submitted via: ExactAudioCopyFreeDBPlugin 1.0
#
DISCID=bb114d0b
DTITLE=Czeslaw Niemen - Od Poczatku
DYEAR=2002
DGENRE=Blues
TTITLE0=Czlowiek Jam Niewdzieczny
TTITLE1=Aerumnarum Plenus
TTITLE2=Italiam, Italiam
TTITLE3=Enigmatyczne Impresje
TTITLE4=Nie Jestes Moja
TTITLE5=Wroc Jeszcze Dzis
TTITLE6=Moj Pejzaz
TTITLE7=Sprzedaj Mnie Wiatrowi
TTITLE8=Zechcesz Mnie, Zechcesz
TTITLE9=Chwila Ciszy
TTITLE10=Muzyko Moja
EXTD=
EXTT0=
EXTT1=
EXTT2=
EXTT3=
EXTT4=
EXTT5=
EXTT6=
EXTT7=
EXTT8=
EXTT9=
EXTT10=
PLAYORDER=
